<svg xmlns="http://www.w3.org/2000/svg" width="360" height="600" viewBox="0 0 360 600" font-family="sans-serif"><rect width="360" height="600" rx="24" fill="#FEFBF8" stroke="#E8DCC8"/><text x="180" y="40" text-anchor="middle" font-size="15" font-weight="bold" fill="#9B8672">Cup of IQ &#129370; Day 14 &#183; Level 1</text><text x="180" y="66" text-anchor="middle" font-size="14" fill="#B7A182" font-family="sans-serif">State: awaiting_tap &#183; target: 3 prints</text><g transform="translate(12,80)"><line x1="234" y1="384" x2="86" y2="300" stroke="#C9B694" stroke-width="4" stroke-dasharray="2 12" stroke-linecap="round" opacity="1"/><line x1="86" y1="300" x2="240" y2="212" stroke="#C9B694" stroke-width="4" stroke-dasharray="2 12" stroke-linecap="round" opacity="1"/><line x1="240" y1="212" x2="172" y2="112" stroke="#C9B694" stroke-width="4" stroke-dasharray="2 12" stroke-linecap="round" opacity="0"/><g transform="translate(105,26)"><ellipse cx="75" cy="112" rx="58" ry="14" fill="#D9C1A0"/><path d="M20 108 Q40 96 75 96 Q110 96 130 108" fill="none" stroke="#B79A72" stroke-width="5" stroke-linecap="round"/><path d="M28 114 Q50 104 75 104 Q100 104 122 114" fill="none" stroke="#C9AD84" stroke-width="4" stroke-linecap="round"/><path d="M75 8 C99 8 112 36 112 66 C112 94 96 108 75 108 C54 108 38 94 38 66 C38 36 51 8 75 8 Z" fill="#FFFDF7" stroke="#E8DCC8" stroke-width="4"/><path d="M58 44 L67 54 L61 66 L70 76" fill="none" stroke="#B7A182" stroke-width="3" stroke-linecap="round"/><path d="M92 38 L84 50 L93 60 L85 74" fill="none" stroke="#B7A182" stroke-width="3" stroke-linecap="round"/><ellipse cx="75" cy="62" rx="17" ry="12" fill="#5C4A3A"/><circle cx="69" cy="60" r="4" fill="#9CBF7B"/><circle cx="81" cy="60" r="4" fill="#9CBF7B"/><circle cx="69" cy="60" r="1.8" fill="#3F3A33"/><circle cx="81" cy="60" r="1.8" fill="#3F3A33"/><circle cx="69.6" cy="59.3" r=".7" fill="#FFF"/><circle cx="81.6" cy="59.3" r=".7" fill="#FFF"/></g><g transform="translate(188,164)"><ellipse cx="52" cy="50" rx="50" ry="42" fill="#F5EDDD"/><g fill="#9DB289"><ellipse cx="30" cy="34" rx="8" ry="9.6"/><ellipse cx="23.8" cy="23.6" rx="3" ry="4.4"/><ellipse cx="30" cy="20.8" rx="3" ry="4.8"/><ellipse cx="36.2" cy="23.6" rx="3" ry="4.4"/></g><g fill="#9DB289"><ellipse cx="66" cy="46" rx="8" ry="9.6"/><ellipse cx="59.8" cy="35.6" rx="3" ry="4.4"/><ellipse cx="66" cy="32.8" rx="3" ry="4.8"/><ellipse cx="72.2" cy="35.6" rx="3" ry="4.4"/></g><g fill="#9DB289"><ellipse cx="38" cy="66" rx="8" ry="9.6"/><ellipse cx="31.8" cy="55.6" rx="3" ry="4.4"/><ellipse cx="38" cy="52.8" rx="3" ry="4.8"/><ellipse cx="44.2" cy="55.6" rx="3" ry="4.4"/></g></g><g transform="translate(34,252)"><ellipse cx="52" cy="50" rx="50" ry="42" fill="#F5EDDD"/><g fill="#5F7F49"><ellipse cx="36" cy="38" rx="8.4" ry="10.08"/><ellipse cx="29.49" cy="27.08" rx="3.1500000000000004" ry="4.620000000000001"/><ellipse cx="36" cy="24.14" rx="3.1500000000000004" ry="5.04"/><ellipse cx="42.51" cy="27.08" rx="3.1500000000000004" ry="4.620000000000001"/></g><g fill="#5F7F49"><ellipse cx="66" cy="62" rx="8.4" ry="10.08"/><ellipse cx="59.49" cy="51.08" rx="3.1500000000000004" ry="4.620000000000001"/><ellipse cx="66" cy="48.14" rx="3.1500000000000004" ry="5.04"/><ellipse cx="72.51" cy="51.08" rx="3.1500000000000004" ry="4.620000000000001"/></g></g><g transform="translate(182,336)"><ellipse cx="52" cy="50" rx="50" ry="42" fill="#F5EDDD"/><g fill="#5F7F49"><ellipse cx="52" cy="52" rx="10.0" ry="12.0"/><ellipse cx="44.25" cy="39.0" rx="3.75" ry="5.5"/><ellipse cx="52" cy="35.5" rx="3.75" ry="6.0"/><ellipse cx="59.75" cy="39.0" rx="3.75" ry="5.5"/></g></g><text x="168" y="52" text-anchor="middle" font-size="30" font-weight="bold" fill="#7BA35C">Two!</text></g></svg>