<svg xmlns="http://www.w3.org/2000/svg" width="360" height="600" viewBox="0 0 360 600" font-family="sans-serif"><rect width="360" height="600" rx="24" fill="#FEFBF8" stroke="#E8DCC8"/><text x="180" y="40" text-anchor="middle" font-size="15" font-weight="bold" fill="#9B8672">Cup of IQ &#129370; Day 14</text><text x="180" y="66" text-anchor="middle" font-size="14" fill="#B7A182" font-family="sans-serif">Celebration (4&#8211;8 s, identical every day)</text><g transform="translate(88,140) scale(1.05)"><ellipse cx="90" cy="132" rx="52" ry="8" fill="#DCE8CB"/><path d="M40 128 Q26 138 18 132 Q30 126 36 120 Z" fill="#FFFDF7" stroke="#E8DCC8" stroke-width="3"/><path d="M142 126 Q158 136 164 128 Q152 124 146 118 Z" fill="#FFFDF7" stroke="#E8DCC8" stroke-width="3"/><path d="M28 108 Q10 104 8 92 Q20 96 30 96 Z" fill="#9CBF7B"/><g fill="#7BA35C"><path d="M52 62 Q58 40 66 62 Z"/><path d="M74 54 Q82 28 92 54 Z"/><path d="M98 54 Q106 30 114 56 Z"/><path d="M118 64 Q126 46 132 66 Z"/></g><ellipse cx="88" cy="94" rx="52" ry="34" fill="#9CBF7B"/><circle cx="138" cy="76" r="22" fill="#9CBF7B"/><circle cx="145" cy="72" r="4.5" fill="#3F3A33"/><circle cx="146.5" cy="70.5" r="1.6" fill="#FFF"/><path d="M150 84 Q156 86 152 90" fill="none" stroke="#3F3A33" stroke-width="2.5" stroke-linecap="round"/><g fill="#89AF69"><rect x="58" y="118" width="14" height="18" rx="7"/><rect x="86" y="120" width="14" height="18" rx="7"/><rect x="108" y="118" width="14" height="16" rx="7"/></g><g fill="#B8D49C"><circle cx="72" cy="96" r="4"/><circle cx="92" cy="104" r="4"/><circle cx="108" cy="94" r="4"/></g></g><text x="180" y="360" text-anchor="middle" font-size="24" font-weight="bold" fill="#6E5340">You found her!</text><text x="180" y="392" text-anchor="middle" font-size="18" fill="#9B8672">A baby stegosaurus!</text><rect x="30" y="95" width="8" height="12" rx="2" fill="#9CBF7B" transform="rotate(-40 34 101)"/><rect x="63" y="135" width="8" height="12" rx="2" fill="#E8B84B" transform="rotate(7 67 141)"/><rect x="96" y="175" width="8" height="12" rx="2" fill="#D98E73" transform="rotate(-26 100 181)"/><rect x="129" y="215" width="8" height="12" rx="2" fill="#8FB8D9" transform="rotate(21 133 221)"/><rect x="162" y="95" width="8" height="12" rx="2" fill="#C9A0C6" transform="rotate(-12 166 101)"/><rect x="195" y="135" width="8" height="12" rx="2" fill="#9CBF7B" transform="rotate(35 199 141)"/><rect x="228" y="175" width="8" height="12" rx="2" fill="#E8B84B" transform="rotate(2 232 181)"/><rect x="261" y="215" width="8" height="12" rx="2" fill="#D98E73" transform="rotate(-31 265 221)"/><rect x="294" y="95" width="8" height="12" rx="2" fill="#8FB8D9" transform="rotate(16 298 101)"/><rect x="327" y="135" width="8" height="12" rx="2" fill="#C9A0C6" transform="rotate(-17 331 141)"/></svg>