<svg xmlns="http://www.w3.org/2000/svg" width="360" height="600" viewBox="0 0 360 600" font-family="sans-serif"><rect width="360" height="600" rx="24" fill="#FEFBF8" stroke="#E8DCC8"/><text x="180" y="40" text-anchor="middle" font-size="15" font-weight="bold" fill="#9B8672">Cup of IQ &#129370; Day 14</text><text x="180" y="66" text-anchor="middle" font-size="14" fill="#B7A182" font-family="sans-serif">Come-back card (LCK-1)</text><g transform="translate(90,110) scale(1.0)"><ellipse cx="90" cy="132" rx="52" ry="8" fill="#DCE8CB"/><path d="M28 108 Q10 104 8 92 Q20 96 30 96 Z" fill="#9CBF7B"/><g fill="#7BA35C"><path d="M52 62 Q58 40 66 62 Z"/><path d="M74 54 Q82 28 92 54 Z"/><path d="M98 54 Q106 30 114 56 Z"/><path d="M118 64 Q126 46 132 66 Z"/></g><ellipse cx="88" cy="94" rx="52" ry="34" fill="#9CBF7B"/><circle cx="138" cy="76" r="22" fill="#9CBF7B"/><circle cx="145" cy="72" r="4.5" fill="#3F3A33"/><circle cx="146.5" cy="70.5" r="1.6" fill="#FFF"/><path d="M150 84 Q156 86 152 90" fill="none" stroke="#3F3A33" stroke-width="2.5" stroke-linecap="round"/><g fill="#89AF69"><rect x="58" y="118" width="14" height="18" rx="7"/><rect x="86" y="120" width="14" height="18" rx="7"/><rect x="108" y="118" width="14" height="16" rx="7"/></g><g fill="#B8D49C"><circle cx="72" cy="96" r="4"/><circle cx="92" cy="104" r="4"/><circle cx="108" cy="94" r="4"/></g></g><text x="180" y="320" text-anchor="middle" font-size="19" font-weight="bold" fill="#6E5340">Stegosaurus hatched today!</text><text x="180" y="348" text-anchor="middle" font-size="16" fill="#9B8672">New egg tomorrow &#129370;</text><rect x="50" y="380" width="260" height="66" rx="14" fill="#F7F0E4"/><text x="180" y="407" text-anchor="middle" font-size="14" fill="#6E5340">Today&#8217;s mission:</text><text x="180" y="429" text-anchor="middle" font-size="14" font-weight="bold" fill="#6E5340">find 3 spoons at breakfast &#129348;&#129348;&#129348;</text><text x="180" y="480" text-anchor="middle" font-size="13" fill="#B7A182">For grown-ups (hold)</text></svg>